<svg xmlns="http://www.w3.org/2000/svg" xmlns:xlink="http://www.w3.org/1999/xlink" width="500" zoomAndPan="magnify" viewBox="0 0 375 374.999991" height="500" preserveAspectRatio="xMidYMid meet" version="1.0"><defs><g/><clipPath id="ef4687a490"><path d="M 137 91.898438 L 256 91.898438 L 256 192 L 137 192 Z M 137 91.898438 " clip-rule="nonzero"/></clipPath><clipPath id="fcf055ec22"><path d="M 112.5 104 L 192 104 L 192 218.648438 L 112.5 218.648438 Z M 112.5 104 " clip-rule="nonzero"/></clipPath></defs><g clip-path="url(#ef4687a490)"><path fill="#ffffff" d="M 137.660156 191.144531 C 142.097656 184.851562 145.71875 179.464844 149.667969 174.351562 C 150.421875 173.351562 152.535156 173.050781 154.011719 173.050781 C 167.046875 172.960938 180.078125 173.109375 193.109375 172.960938 C 202.28125 172.839844 211 170.71875 218.785156 165.578125 C 236.492188 153.898438 237.246094 130.75 220.382812 117.859375 C 212.148438 111.566406 202.613281 109.480469 191.390625 108.84375 C 196.039062 102.941406 200.171875 97.679688 204.394531 92.472656 C 204.816406 91.988281 206.054688 91.898438 206.867188 92.050781 C 221.679688 94.59375 235.105469 100.039062 245.183594 111.6875 C 262.4375 131.6875 257.671875 162.035156 234.984375 178.34375 C 224.214844 186.089844 211.996094 190.265625 198.964844 190.75 C 180.621094 191.417969 162.25 191.054688 143.90625 191.113281 C 142.246094 191.144531 140.617188 191.144531 137.660156 191.144531 Z M 137.660156 191.144531 " fill-opacity="1" fill-rule="nonzero"/></g><g clip-path="url(#fcf055ec22)"><path fill="#ffffff" d="M 191.722656 104.878906 C 186.804688 110.929688 182.492188 116.5 177.875 121.792969 C 177.152344 122.640625 175.132812 122.519531 173.714844 122.550781 C 161.433594 122.609375 149.1875 122.582031 136.515625 122.582031 C 136.515625 127.816406 136.515625 132.746094 136.515625 138.164062 C 146.921875 138.164062 157.179688 138.164062 168.765625 138.164062 C 164.269531 143.699219 160.589844 148.421875 156.667969 152.929688 C 156.003906 153.683594 154.222656 153.683594 152.957031 153.683594 C 147.648438 153.777344 142.308594 153.714844 136.457031 153.714844 C 136.335938 155.5 136.152344 157.042969 136.152344 158.617188 C 136.125 168.269531 136.304688 177.921875 136.03125 187.574219 C 135.972656 189.84375 134.945312 192.507812 133.527344 194.292969 C 127.164062 202.25 120.496094 209.964844 113.195312 218.648438 C 112.953125 216.410156 112.710938 215.230469 112.710938 214.019531 C 112.652344 178.921875 112.652344 143.882812 112.621094 108.84375 C 112.621094 106.269531 112.5625 104.335938 116.210938 104.335938 C 140.347656 104.457031 164.480469 104.394531 188.617188 104.425781 C 189.308594 104.425781 189.972656 104.605469 191.722656 104.878906 Z M 191.722656 104.878906 " fill-opacity="1" fill-rule="nonzero"/></g><g fill="#ffffff" fill-opacity="1"><g transform="translate(104.303434, 258.679252)"><g><path d="M 1.53125 0 L 1.53125 -34.5625 L 15.375 -34.5625 L 15.375 -27.84375 L 8.484375 -27.84375 L 8.484375 -22.328125 L 15 -22.328125 L 15 -15.6875 L 8.484375 -15.6875 L 8.484375 0 Z M 1.53125 0 "/></g></g></g><g fill="#ffffff" fill-opacity="1"><g transform="translate(120.358287, 258.679252)"><g><path d="M 1.53125 0 L 1.53125 -34.5625 L 15.375 -34.5625 L 15.375 -27.875 L 8.5625 -27.875 L 8.5625 -21.15625 L 15.09375 -21.15625 L 15.09375 -14.640625 L 8.5625 -14.640625 L 8.5625 -6.71875 L 15.8125 -6.71875 L 15.8125 0 Z M 1.53125 0 "/></g></g></g><g fill="#ffffff" fill-opacity="1"><g transform="translate(136.936236, 258.679252)"><g><path d="M 1.53125 -34.5625 L 12.15625 -34.5625 C 13.84375 -34.5625 15.148438 -34.175781 16.078125 -33.40625 C 17.003906 -32.644531 17.625 -31.570312 17.9375 -30.1875 C 18.257812 -28.8125 18.421875 -27.050781 18.421875 -24.90625 C 18.421875 -22.945312 18.164062 -21.414062 17.65625 -20.3125 C 17.144531 -19.21875 16.257812 -18.457031 15 -18.03125 C 16.050781 -17.8125 16.8125 -17.285156 17.28125 -16.453125 C 17.75 -15.617188 17.984375 -14.492188 17.984375 -13.078125 L 17.90625 0 L 11.140625 0 L 11.140625 -13.515625 C 11.140625 -14.484375 10.953125 -15.097656 10.578125 -15.359375 C 10.203125 -15.628906 9.519531 -15.765625 8.53125 -15.765625 L 8.53125 0 L 1.53125 0 Z M 10.21875 -21.765625 C 11.1875 -21.765625 11.671875 -22.8125 11.671875 -24.90625 C 11.671875 -25.8125 11.628906 -26.492188 11.546875 -26.953125 C 11.460938 -27.410156 11.3125 -27.722656 11.09375 -27.890625 C 10.882812 -28.066406 10.578125 -28.15625 10.171875 -28.15625 L 8.5625 -28.15625 L 8.5625 -21.765625 Z M 10.21875 -21.765625 "/></g></g></g><g fill="#ffffff" fill-opacity="1"><g transform="translate(156.129628, 258.679252)"><g><path d="M 1.53125 0 L 1.53125 -34.5625 L 8.65625 -34.5625 L 11.828125 -18.03125 L 11.828125 -34.5625 L 18.5 -34.5625 L 18.5 0 L 11.75 0 L 8.28125 -17.296875 L 8.28125 0 Z M 1.53125 0 "/></g></g></g><g fill="#ffffff" fill-opacity="1"><g transform="translate(176.168019, 258.679252)"><g><path d="M 0.609375 0 L 3.9375 -34.5625 L 15.65625 -34.5625 L 18.953125 0 L 12.390625 0 L 11.90625 -5.59375 L 7.71875 -5.59375 L 7.328125 0 Z M 8.25 -11.109375 L 11.390625 -11.109375 L 9.859375 -28.6875 L 9.53125 -28.6875 Z M 8.25 -11.109375 "/></g></g></g><g fill="#ffffff" fill-opacity="1"><g transform="translate(195.683314, 258.679252)"><g><path d="M 1.53125 0 L 1.53125 -34.5625 L 8.65625 -34.5625 L 11.828125 -18.03125 L 11.828125 -34.5625 L 18.5 -34.5625 L 18.5 0 L 11.75 0 L 8.28125 -17.296875 L 8.28125 0 Z M 1.53125 0 "/></g></g></g><g fill="#ffffff" fill-opacity="1"><g transform="translate(215.721706, 258.679252)"><g><path d="M 1.53125 -34.5625 L 11.0625 -34.5625 C 13.53125 -34.5625 15.378906 -33.875 16.609375 -32.5 C 17.847656 -31.132812 18.476562 -29.113281 18.5 -26.4375 L 18.59375 -10.265625 C 18.613281 -6.859375 18.019531 -4.296875 16.8125 -2.578125 C 15.601562 -0.859375 13.609375 0 10.828125 0 L 1.53125 0 Z M 9.703125 -6.109375 C 10.960938 -6.109375 11.59375 -6.726562 11.59375 -7.96875 L 11.59375 -25.796875 C 11.59375 -26.566406 11.53125 -27.144531 11.40625 -27.53125 C 11.28125 -27.925781 11.054688 -28.191406 10.734375 -28.328125 C 10.421875 -28.460938 9.925781 -28.53125 9.25 -28.53125 L 8.484375 -28.53125 L 8.484375 -6.109375 Z M 9.703125 -6.109375 "/></g></g></g><g fill="#ffffff" fill-opacity="1"><g transform="translate(235.558904, 258.679252)"><g><path d="M 1.53125 0 L 1.53125 -34.5625 L 15.375 -34.5625 L 15.375 -27.875 L 8.5625 -27.875 L 8.5625 -21.15625 L 15.09375 -21.15625 L 15.09375 -14.640625 L 8.5625 -14.640625 L 8.5625 -6.71875 L 15.8125 -6.71875 L 15.8125 0 Z M 1.53125 0 "/></g></g></g><g fill="#ffffff" fill-opacity="1"><g transform="translate(252.136852, 258.679252)"><g><path d="M 9.734375 0.328125 C 6.597656 0.328125 4.332031 -0.445312 2.9375 -2 C 1.539062 -3.5625 0.84375 -6.070312 0.84375 -9.53125 L 0.84375 -12.921875 L 7.640625 -12.921875 L 7.640625 -8.609375 C 7.640625 -6.890625 8.191406 -6.03125 9.296875 -6.03125 C 9.910156 -6.03125 10.335938 -6.210938 10.578125 -6.578125 C 10.816406 -6.941406 10.9375 -7.550781 10.9375 -8.40625 C 10.9375 -9.53125 10.800781 -10.460938 10.53125 -11.203125 C 10.269531 -11.941406 9.929688 -12.554688 9.515625 -13.046875 C 9.097656 -13.546875 8.351562 -14.320312 7.28125 -15.375 L 4.3125 -18.34375 C 2 -20.59375 0.84375 -23.085938 0.84375 -25.828125 C 0.84375 -28.773438 1.519531 -31.019531 2.875 -32.5625 C 4.226562 -34.113281 6.207031 -34.890625 8.8125 -34.890625 C 11.925781 -34.890625 14.164062 -34.0625 15.53125 -32.40625 C 16.894531 -30.757812 17.578125 -28.175781 17.578125 -24.65625 L 10.546875 -24.65625 L 10.5 -27.03125 C 10.5 -27.488281 10.367188 -27.851562 10.109375 -28.125 C 9.859375 -28.394531 9.503906 -28.53125 9.046875 -28.53125 C 8.515625 -28.53125 8.113281 -28.378906 7.84375 -28.078125 C 7.570312 -27.785156 7.4375 -27.382812 7.4375 -26.875 C 7.4375 -25.75 8.082031 -24.582031 9.375 -23.375 L 13.390625 -19.515625 C 14.335938 -18.597656 15.117188 -17.726562 15.734375 -16.90625 C 16.347656 -16.09375 16.84375 -15.128906 17.21875 -14.015625 C 17.59375 -12.910156 17.78125 -11.59375 17.78125 -10.0625 C 17.78125 -6.65625 17.15625 -4.070312 15.90625 -2.3125 C 14.664062 -0.550781 12.609375 0.328125 9.734375 0.328125 Z M 9.734375 0.328125 "/></g></g></g><g fill="#ffffff" fill-opacity="1"><g transform="translate(143.542099, 277.423928)"><g><path d="M 1.039062 0 L 4.859375 0 C 8.804688 0 10.851562 -2.449219 10.851562 -7.097656 C 10.851562 -11.734375 8.773438 -14.164062 4.84375 -14.164062 L 1.039062 -14.164062 Z M 4.070312 -2.792969 L 4.070312 -11.371094 L 4.796875 -11.371094 C 6.808594 -11.371094 7.820312 -9.878906 7.820312 -7.050781 C 7.820312 -4.257812 6.835938 -2.792969 4.796875 -2.792969 Z M 4.070312 -2.792969 "/></g></g></g><g fill="#ffffff" fill-opacity="1"><g transform="translate(154.793208, 277.423928)"><g><path d="M 1.03125 0 L 8.089844 0 L 8.089844 -2.71875 L 4.070312 -2.71875 L 4.070312 -5.945312 L 7.503906 -5.945312 L 7.503906 -8.488281 L 4.070312 -8.488281 L 4.070312 -11.445312 L 8.015625 -11.445312 L 8.015625 -14.164062 L 1.03125 -14.164062 Z M 1.03125 0 "/></g></g></g><g fill="#ffffff" fill-opacity="1"><g transform="translate(163.270956, 277.423928)"><g><path d="M 8.152344 -14.164062 L 5.816406 -4.601562 L 5.761719 -4.515625 L 5.714844 -4.601562 L 3.359375 -14.164062 L 0.222656 -14.164062 L 4.25 0 L 7.226562 0 L 11.269531 -14.164062 Z M 8.152344 -14.164062 "/></g></g></g><g fill="#ffffff" fill-opacity="1"><g transform="translate(174.763227, 277.423928)"><g><path d="M 1.03125 0 L 8.089844 0 L 8.089844 -2.71875 L 4.070312 -2.71875 L 4.070312 -5.945312 L 7.503906 -5.945312 L 7.503906 -8.488281 L 4.070312 -8.488281 L 4.070312 -11.445312 L 8.015625 -11.445312 L 8.015625 -14.164062 L 1.03125 -14.164062 Z M 1.03125 0 "/></g></g></g><g fill="#ffffff" fill-opacity="1"><g transform="translate(183.240975, 277.423928)"><g><path d="M 1.039062 0 L 7.429688 0 L 7.429688 -2.707031 L 4.070312 -2.707031 L 4.070312 -14.164062 L 1.039062 -14.164062 Z M 1.039062 0 "/></g></g></g><g fill="#ffffff" fill-opacity="1"><g transform="translate(190.930318, 277.423928)"><g><path d="M 6.261719 0.363281 C 9.886719 0.363281 12.132812 -2.484375 12.132812 -7.105469 C 12.132812 -11.695312 9.886719 -14.546875 6.261719 -14.546875 C 2.632812 -14.546875 0.390625 -11.695312 0.390625 -7.105469 C 0.390625 -2.484375 2.632812 0.363281 6.261719 0.363281 Z M 6.261719 -2.441406 C 4.472656 -2.441406 3.433594 -4.144531 3.433594 -7.097656 C 3.433594 -10.035156 4.472656 -11.753906 6.261719 -11.753906 C 8.0625 -11.753906 9.089844 -10.035156 9.089844 -7.097656 C 9.089844 -4.144531 8.0625 -2.441406 6.261719 -2.441406 Z M 6.261719 -2.441406 "/></g></g></g><g fill="#ffffff" fill-opacity="1"><g transform="translate(203.452156, 277.423928)"><g><path d="M 1.039062 0 L 4.070312 0 L 4.070312 -5.183594 L 5.121094 -5.183594 C 7.71875 -5.183594 9.339844 -6.835938 9.339844 -9.664062 C 9.339844 -12.503906 7.699219 -14.164062 5.082031 -14.164062 L 1.039062 -14.164062 Z M 4.070312 -7.773438 L 4.070312 -11.566406 L 4.898438 -11.566406 C 5.871094 -11.566406 6.484375 -10.917969 6.484375 -9.675781 C 6.484375 -8.441406 5.871094 -7.78125 4.886719 -7.773438 Z M 4.070312 -7.773438 "/></g></g></g><g fill="#ffffff" fill-opacity="1"><g transform="translate(212.959483, 277.423928)"><g><path d="M 1.03125 0 L 8.089844 0 L 8.089844 -2.71875 L 4.070312 -2.71875 L 4.070312 -5.945312 L 7.503906 -5.945312 L 7.503906 -8.488281 L 4.070312 -8.488281 L 4.070312 -11.445312 L 8.015625 -11.445312 L 8.015625 -14.164062 L 1.03125 -14.164062 Z M 1.03125 0 "/></g></g></g><g fill="#ffffff" fill-opacity="1"><g transform="translate(221.437232, 277.423928)"><g><path d="M 9.886719 0 L 7.570312 -6.066406 C 8.699219 -6.714844 9.339844 -7.921875 9.339844 -9.601562 C 9.339844 -12.429688 7.765625 -14.164062 5.195312 -14.164062 L 1.039062 -14.164062 L 1.039062 0 L 4.082031 0 L 4.082031 -5.519531 L 4.945312 -5.519531 L 6.761719 0 Z M 4.082031 -11.566406 L 5.007812 -11.566406 C 5.945312 -11.566406 6.484375 -10.882812 6.484375 -9.675781 C 6.484375 -8.496094 5.945312 -7.820312 5 -7.808594 L 4.082031 -7.808594 Z M 4.082031 -11.566406 "/></g></g></g></svg>