<svg xmlns="http://www.w3.org/2000/svg" xmlns:xlink="http://www.w3.org/1999/xlink" width="1000" zoomAndPan="magnify" viewBox="0 0 750 374.999991" height="500" preserveAspectRatio="xMidYMid meet" version="1.0"><defs><g/><clipPath id="e1ea66f188"><path d="M 86 52.769531 L 316 52.769531 L 316 245 L 86 245 Z M 86 52.769531 " clip-rule="nonzero"/></clipPath><clipPath id="5f8f3588a9"><path d="M 37.488281 76 L 192 76 L 192 298.019531 L 37.488281 298.019531 Z M 37.488281 76 " clip-rule="nonzero"/></clipPath></defs><g clip-path="url(#e1ea66f188)"><path fill="#ffffff" d="M 86.300781 244.800781 C 94.90625 232.625 101.929688 222.203125 109.59375 212.308594 C 111.058594 210.378906 115.15625 209.792969 118.023438 209.792969 C 143.308594 209.617188 168.589844 209.910156 193.875 209.617188 C 211.667969 209.382812 228.582031 205.285156 243.683594 195.332031 C 278.039062 172.730469 279.5 127.945312 246.785156 103.003906 C 230.804688 90.824219 212.3125 86.785156 190.539062 85.554688 C 199.550781 74.140625 207.570312 63.953125 215.765625 53.882812 C 216.582031 52.945312 218.984375 52.769531 220.5625 53.0625 C 249.300781 57.980469 275.34375 68.519531 294.894531 91.058594 C 328.371094 129.757812 319.125 188.480469 275.113281 220.039062 C 254.21875 235.023438 230.511719 243.105469 205.230469 244.042969 C 169.644531 245.328125 134 244.625 98.417969 244.742188 C 95.195312 244.800781 92.035156 244.800781 86.300781 244.800781 Z M 86.300781 244.800781 " fill-opacity="1" fill-rule="nonzero"/></g><g clip-path="url(#5f8f3588a9)"><path fill="#ffffff" d="M 191.183594 77.886719 C 181.644531 89.597656 173.273438 100.367188 164.320312 110.613281 C 162.914062 112.253906 158.992188 112.019531 156.242188 112.078125 C 132.421875 112.195312 108.660156 112.136719 84.078125 112.136719 C 84.078125 122.265625 84.078125 131.808594 84.078125 142.289062 C 104.269531 142.289062 124.167969 142.289062 146.644531 142.289062 C 137.921875 153 130.78125 162.136719 123.171875 170.859375 C 121.886719 172.320312 118.433594 172.320312 115.972656 172.320312 C 105.671875 172.496094 95.3125 172.378906 83.960938 172.378906 C 83.726562 175.835938 83.375 178.820312 83.375 181.863281 C 83.316406 200.542969 83.667969 219.21875 83.140625 237.894531 C 83.023438 242.285156 81.035156 247.4375 78.28125 250.890625 C 65.933594 266.289062 53 281.21875 38.835938 298.019531 C 38.367188 293.6875 37.898438 291.40625 37.898438 289.0625 C 37.78125 221.148438 37.78125 153.351562 37.722656 85.554688 C 37.722656 80.582031 37.605469 76.832031 44.6875 76.832031 C 91.511719 77.066406 138.332031 76.949219 185.152344 77.007812 C 186.5 77.007812 187.789062 77.359375 191.183594 77.886719 Z M 191.183594 77.886719 " fill-opacity="1" fill-rule="nonzero"/></g><g fill="#ffffff" fill-opacity="1"><g transform="translate(338.688866, 182.806227)"><g><path d="M 3.53125 0 L 3.53125 -79.84375 L 35.515625 -79.84375 L 35.515625 -64.328125 L 19.609375 -64.328125 L 19.609375 -51.59375 L 34.671875 -51.59375 L 34.671875 -36.25 L 19.609375 -36.25 L 19.609375 0 Z M 3.53125 0 "/></g></g></g><g fill="#ffffff" fill-opacity="1"><g transform="translate(375.774698, 182.806227)"><g><path d="M 3.53125 0 L 3.53125 -79.84375 L 35.515625 -79.84375 L 35.515625 -64.421875 L 19.796875 -64.421875 L 19.796875 -48.890625 L 34.859375 -48.890625 L 34.859375 -33.828125 L 19.796875 -33.828125 L 19.796875 -15.515625 L 36.53125 -15.515625 L 36.53125 0 Z M 3.53125 0 "/></g></g></g><g fill="#ffffff" fill-opacity="1"><g transform="translate(414.068853, 182.806227)"><g><path d="M 3.53125 -79.84375 L 28.078125 -79.84375 C 31.972656 -79.84375 34.988281 -78.957031 37.125 -77.1875 C 39.269531 -75.425781 40.710938 -72.945312 41.453125 -69.75 C 42.203125 -66.5625 42.578125 -62.488281 42.578125 -57.53125 C 42.578125 -53.007812 41.988281 -49.476562 40.8125 -46.9375 C 39.632812 -44.394531 37.585938 -42.628906 34.671875 -41.640625 C 37.085938 -41.148438 38.835938 -39.941406 39.921875 -38.015625 C 41.003906 -36.097656 41.546875 -33.492188 41.546875 -30.203125 L 41.359375 0 L 25.75 0 L 25.75 -31.234375 C 25.75 -33.460938 25.3125 -34.882812 24.4375 -35.5 C 23.570312 -36.125 21.992188 -36.4375 19.703125 -36.4375 L 19.703125 0 L 3.53125 0 Z M 23.609375 -50.28125 C 25.835938 -50.28125 26.953125 -52.695312 26.953125 -57.53125 C 26.953125 -59.644531 26.859375 -61.226562 26.671875 -62.28125 C 26.492188 -63.332031 26.15625 -64.054688 25.65625 -64.453125 C 25.15625 -64.859375 24.441406 -65.0625 23.515625 -65.0625 L 19.796875 -65.0625 L 19.796875 -50.28125 Z M 23.609375 -50.28125 "/></g></g></g><g fill="#ffffff" fill-opacity="1"><g transform="translate(458.404538, 182.806227)"><g><path d="M 3.53125 0 L 3.53125 -79.84375 L 19.984375 -79.84375 L 27.328125 -41.640625 L 27.328125 -79.84375 L 42.765625 -79.84375 L 42.765625 0 L 27.140625 0 L 19.140625 -39.96875 L 19.140625 0 Z M 3.53125 0 "/></g></g></g><g fill="#ffffff" fill-opacity="1"><g transform="translate(504.692126, 182.806227)"><g><path d="M 1.390625 0 L 9.109375 -79.84375 L 36.15625 -79.84375 L 43.78125 0 L 28.625 0 L 27.515625 -12.921875 L 17.84375 -12.921875 L 16.921875 0 Z M 19.0625 -25.65625 L 26.3125 -25.65625 L 22.78125 -66.28125 L 22.03125 -66.28125 Z M 19.0625 -25.65625 "/></g></g></g><g fill="#ffffff" fill-opacity="1"><g transform="translate(549.771391, 182.806227)"><g><path d="M 3.53125 0 L 3.53125 -79.84375 L 19.984375 -79.84375 L 27.328125 -41.640625 L 27.328125 -79.84375 L 42.765625 -79.84375 L 42.765625 0 L 27.140625 0 L 19.140625 -39.96875 L 19.140625 0 Z M 3.53125 0 "/></g></g></g><g fill="#ffffff" fill-opacity="1"><g transform="translate(596.058979, 182.806227)"><g><path d="M 3.53125 -79.84375 L 25.5625 -79.84375 C 31.257812 -79.84375 35.535156 -78.257812 38.390625 -75.09375 C 41.242188 -71.9375 42.703125 -67.257812 42.765625 -61.0625 L 42.9375 -23.703125 C 43 -15.828125 41.632812 -9.90625 38.84375 -5.9375 C 36.0625 -1.976562 31.445312 0 25 0 L 3.53125 0 Z M 22.40625 -14.125 C 25.3125 -14.125 26.765625 -15.550781 26.765625 -18.40625 L 26.765625 -59.578125 C 26.765625 -61.378906 26.625 -62.726562 26.34375 -63.625 C 26.070312 -64.519531 25.5625 -65.125 24.8125 -65.4375 C 24.070312 -65.75 22.925781 -65.90625 21.375 -65.90625 L 19.609375 -65.90625 L 19.609375 -14.125 Z M 22.40625 -14.125 "/></g></g></g><g fill="#ffffff" fill-opacity="1"><g transform="translate(641.881822, 182.806227)"><g><path d="M 3.53125 0 L 3.53125 -79.84375 L 35.515625 -79.84375 L 35.515625 -64.421875 L 19.796875 -64.421875 L 19.796875 -48.890625 L 34.859375 -48.890625 L 34.859375 -33.828125 L 19.796875 -33.828125 L 19.796875 -15.515625 L 36.53125 -15.515625 L 36.53125 0 Z M 3.53125 0 "/></g></g></g><g fill="#ffffff" fill-opacity="1"><g transform="translate(680.175977, 182.806227)"><g><path d="M 22.5 0.75 C 15.25 0.75 10.007812 -1.046875 6.78125 -4.640625 C 3.5625 -8.234375 1.953125 -14.03125 1.953125 -22.03125 L 1.953125 -29.84375 L 17.65625 -29.84375 L 17.65625 -19.890625 C 17.65625 -15.921875 18.925781 -13.9375 21.46875 -13.9375 C 22.894531 -13.9375 23.882812 -14.351562 24.4375 -15.1875 C 25 -16.03125 25.28125 -17.441406 25.28125 -19.421875 C 25.28125 -22.023438 24.96875 -24.175781 24.34375 -25.875 C 23.726562 -27.582031 22.941406 -29.007812 21.984375 -30.15625 C 21.023438 -31.3125 19.304688 -33.097656 16.828125 -35.515625 L 9.953125 -42.390625 C 4.617188 -47.585938 1.953125 -53.347656 1.953125 -59.671875 C 1.953125 -66.492188 3.515625 -71.6875 6.640625 -75.25 C 9.773438 -78.8125 14.347656 -80.59375 20.359375 -80.59375 C 27.546875 -80.59375 32.71875 -78.6875 35.875 -74.875 C 39.039062 -71.0625 40.625 -65.097656 40.625 -56.984375 L 24.359375 -56.984375 L 24.265625 -62.46875 C 24.265625 -63.519531 23.96875 -64.351562 23.375 -64.96875 C 22.789062 -65.59375 21.972656 -65.90625 20.921875 -65.90625 C 19.679688 -65.90625 18.75 -65.5625 18.125 -64.875 C 17.507812 -64.195312 17.203125 -63.269531 17.203125 -62.09375 C 17.203125 -59.488281 18.6875 -56.789062 21.65625 -54 L 30.953125 -45.078125 C 33.117188 -42.972656 34.914062 -40.972656 36.34375 -39.078125 C 37.769531 -37.191406 38.914062 -34.960938 39.78125 -32.390625 C 40.644531 -29.816406 41.078125 -26.765625 41.078125 -23.234375 C 41.078125 -15.367188 39.632812 -9.40625 36.75 -5.34375 C 33.875 -1.28125 29.125 0.75 22.5 0.75 Z M 22.5 0.75 "/></g></g></g><g fill="#ffffff" fill-opacity="1"><g transform="translate(394.36697, 240.583894)"><g><path d="M 3.425781 0 L 16.027344 0 C 29.023438 0 35.785156 -8.074219 35.785156 -23.398438 C 35.785156 -38.691406 28.933594 -46.703125 15.964844 -46.703125 L 3.425781 -46.703125 Z M 13.425781 -9.207031 L 13.425781 -37.496094 L 15.8125 -37.496094 C 22.449219 -37.496094 25.78125 -32.574219 25.78125 -23.246094 C 25.78125 -14.039062 22.539062 -9.207031 15.8125 -9.207031 Z M 13.425781 -9.207031 "/></g></g></g><g fill="#ffffff" fill-opacity="1"><g transform="translate(431.463434, 240.583894)"><g><path d="M 3.394531 0 L 26.667969 0 L 26.667969 -8.960938 L 13.425781 -8.960938 L 13.425781 -19.605469 L 24.742188 -19.605469 L 24.742188 -27.984375 L 13.425781 -27.984375 L 13.425781 -37.742188 L 26.425781 -37.742188 L 26.425781 -46.703125 L 3.394531 -46.703125 Z M 3.394531 0 "/></g></g></g><g fill="#ffffff" fill-opacity="1"><g transform="translate(459.415744, 240.583894)"><g><path d="M 26.882812 -46.703125 L 19.175781 -15.171875 L 18.992188 -14.894531 L 18.839844 -15.171875 L 11.070312 -46.703125 L 0.734375 -46.703125 L 14.007812 0 L 23.824219 0 L 37.160156 -46.703125 Z M 26.882812 -46.703125 "/></g></g></g><g fill="#ffffff" fill-opacity="1"><g transform="translate(497.30735, 240.583894)"><g><path d="M 3.394531 0 L 26.667969 0 L 26.667969 -8.960938 L 13.425781 -8.960938 L 13.425781 -19.605469 L 24.742188 -19.605469 L 24.742188 -27.984375 L 13.425781 -27.984375 L 13.425781 -37.742188 L 26.425781 -37.742188 L 26.425781 -46.703125 L 3.394531 -46.703125 Z M 3.394531 0 "/></g></g></g><g fill="#ffffff" fill-opacity="1"><g transform="translate(525.25966, 240.583894)"><g><path d="M 3.425781 0 L 24.5 0 L 24.5 -8.929688 L 13.425781 -8.929688 L 13.425781 -46.703125 L 3.425781 -46.703125 Z M 3.425781 0 "/></g></g></g><g fill="#ffffff" fill-opacity="1"><g transform="translate(550.612484, 240.583894)"><g><path d="M 20.644531 1.191406 C 32.601562 1.191406 40.003906 -8.195312 40.003906 -23.429688 C 40.003906 -38.566406 32.601562 -47.957031 20.644531 -47.957031 C 8.6875 -47.957031 1.285156 -38.566406 1.285156 -23.429688 C 1.285156 -8.195312 8.6875 1.191406 20.644531 1.191406 Z M 20.644531 -8.042969 C 14.742188 -8.042969 11.316406 -13.671875 11.316406 -23.398438 C 11.316406 -33.09375 14.742188 -38.75 20.644531 -38.75 C 26.578125 -38.75 29.972656 -33.09375 29.972656 -23.398438 C 29.972656 -13.671875 26.578125 -8.042969 20.644531 -8.042969 Z M 20.644531 -8.042969 "/></g></g></g><g fill="#ffffff" fill-opacity="1"><g transform="translate(591.898718, 240.583894)"><g><path d="M 3.425781 0 L 13.425781 0 L 13.425781 -17.097656 L 16.882812 -17.097656 C 25.445312 -17.097656 30.796875 -22.539062 30.796875 -31.871094 C 30.796875 -41.226562 25.386719 -46.703125 16.761719 -46.703125 L 3.425781 -46.703125 Z M 13.425781 -25.628906 L 13.425781 -38.140625 L 16.148438 -38.140625 C 19.359375 -38.140625 21.378906 -36 21.378906 -31.898438 C 21.378906 -27.832031 19.359375 -25.660156 16.117188 -25.628906 Z M 13.425781 -25.628906 "/></g></g></g><g fill="#ffffff" fill-opacity="1"><g transform="translate(623.245692, 240.583894)"><g><path d="M 3.394531 0 L 26.667969 0 L 26.667969 -8.960938 L 13.425781 -8.960938 L 13.425781 -19.605469 L 24.742188 -19.605469 L 24.742188 -27.984375 L 13.425781 -27.984375 L 13.425781 -37.742188 L 26.425781 -37.742188 L 26.425781 -46.703125 L 3.394531 -46.703125 Z M 3.394531 0 "/></g></g></g><g fill="#ffffff" fill-opacity="1"><g transform="translate(651.198001, 240.583894)"><g><path d="M 32.601562 0 L 24.957031 -20.003906 C 28.6875 -22.144531 30.796875 -26.121094 30.796875 -31.65625 C 30.796875 -40.984375 25.597656 -46.703125 17.128906 -46.703125 L 3.425781 -46.703125 L 3.425781 0 L 13.457031 0 L 13.457031 -18.199219 L 16.300781 -18.199219 L 22.296875 0 Z M 13.457031 -38.140625 L 16.515625 -38.140625 C 19.605469 -38.140625 21.378906 -35.875 21.378906 -31.898438 C 21.378906 -28.015625 19.605469 -25.78125 16.484375 -25.753906 L 13.457031 -25.753906 Z M 13.457031 -38.140625 "/></g></g></g></svg>